<svg width="82" height="87" viewBox="0 0 82 87" fill="none" xmlns="http://www.w3.org/2000/svg">
<path d="M29.3158 82.999H11C7.13401 82.999 4 79.865 4 75.999V34.6846C4 30.4441 6.06813 26.4702 9.54113 24.0372L35.2624 6.01844C38.7069 3.60542 43.2931 3.60543 46.7376 6.01844L72.4589 24.0372C75.9319 26.4702 78 30.4441 78 34.6845V75.999C78 79.865 74.866 82.999 71 82.999H52.6842M29.3158 82.999V57.543C29.3158 54.7816 31.5544 52.543 34.3158 52.543H47.6842C50.4456 52.543 52.6842 54.7816 52.6842 57.543V82.999M29.3158 82.999H52.6842" stroke="black" stroke-width="7"/>
</svg>
